<?xml version="1.0" encoding="utf-8"?>
<!-- Generator: Adobe Illustrator 23.0.1, SVG Export Plug-In . SVG Version: 6.00 Build 0)  -->
<!DOCTYPE svg PUBLIC "-//W3C//DTD SVG 1.1//EN" "http://www.w3.org/Graphics/SVG/1.1/DTD/svg11.dtd" [
	<!ENTITY ns_flows "http://ns.adobe.com/Flows/1.0/">
	<!ENTITY ns_extend "http://ns.adobe.com/Extensibility/1.0/">
	<!ENTITY ns_ai "http://ns.adobe.com/AdobeIllustrator/10.0/">
	<!ENTITY ns_graphs "http://ns.adobe.com/Graphs/1.0/">
	<!ENTITY ns_vars "http://ns.adobe.com/Variables/1.0/">
	<!ENTITY ns_imrep "http://ns.adobe.com/ImageReplacement/1.0/">
	<!ENTITY ns_sfw "http://ns.adobe.com/SaveForWeb/1.0/">
	<!ENTITY ns_custom "http://ns.adobe.com/GenericCustomNamespace/1.0/">
	<!ENTITY ns_adobe_xpath "http://ns.adobe.com/XPath/1.0/">
]>
<svg version="1.1" xmlns:x="&ns_extend;" xmlns:i="&ns_ai;" xmlns:graph="&ns_graphs;"
	 xmlns="http://www.w3.org/2000/svg" xmlns:xlink="http://www.w3.org/1999/xlink" xmlns:a="http://ns.adobe.com/AdobeSVGViewerExtensions/3.0/"
	 x="0px" y="0px" viewBox="0 0 750 750" enable-background="new 0 0 750 750" xml:space="preserve">
<metadata>
	<sfw  xmlns="&ns_sfw;">
		<slices></slices>
		<sliceSourceBounds  bottomLeftOrigin="true" height="750" width="4432.455" x="-1136.955" y="0.5"></sliceSourceBounds>
	</sfw>
</metadata>
<g id="FILL-BACKGROUND">
	<rect x="-0.5" y="-0.5" fill="#FFFFFF" width="750" height="750"/>
</g>
<g id="N-TEXT">
</g>
<g id="D-DIAG-DASH">
</g>
<g id="N-DIMS">
</g>
<g id="AG-DIAGRAM">
	<g id="POLYLINE_145_">
		<g>
			<g>
				
					<line fill="none" stroke="#FF6B6B" stroke-width="3.5" stroke-linecap="round" stroke-linejoin="round" x1="162.694" y1="674.794" x2="164.694" y2="674.794"/>
				
					<line fill="none" stroke="#FF6B6B" stroke-width="3.5" stroke-linecap="round" stroke-linejoin="round" stroke-dasharray="3.9587,6.9277" x1="171.622" y1="674.794" x2="581.842" y2="674.794"/>
				
					<line fill="none" stroke="#FF6B6B" stroke-width="3.5" stroke-linecap="round" stroke-linejoin="round" x1="585.306" y1="674.794" x2="587.306" y2="674.794"/>
			</g>
		</g>
	</g>
</g>
<g id="D-DIAG-OUTLINE">
</g>
<g id="AG-HUMANS">
	<g id="POLYLINE_118_">
		
			<path fill="none" stroke="#FF6B6B" stroke-width="2.75" stroke-linecap="round" stroke-linejoin="round" stroke-miterlimit="10" d="
			M531.33,270.397c-4.841-3.397-10.424-5.009-16.332-4.879c-6.456,0.142-12.766,2.326-17.675,6.581
			c-2.83,2.452-5.095,5.501-6.773,8.84c-3.522-5.528-8.657-10.204-14.532-13.124c-5.984-2.974-12.813-3.754-19.167-1.491
			c-2.361,0.841-4.771,2.074-6.45,3.984c-1.315,1.495-1.983,3.35-2.42,5.267c-0.361,1.581-0.216,3.308-0.086,4.916
			c0.13,1.612,0.378,3.222,0.818,4.78c0.603,2.136,1.614,4.116,3.066,5.8c3.616,4.193,8.768,5.64,14.022,6.502
			c7.034,1.153,13.831-0.403,20.024-3.858c0.823-0.459,1.629-0.949,2.412-1.474c0.335-0.224,0.665-0.454,0.991-0.691
			c0.22-0.16,0.913-0.884,1.165-0.889c0.239-0.005,0.885,0.699,1.07,0.843c0.32,0.249,0.643,0.495,0.974,0.73
			c0.554,0.395,1.129,0.76,1.724,1.09c2.842,1.577,6.062,2.553,9.209,3.307c5.89,1.411,12.474,1.91,18.296-0.069
			c4.552-1.548,8.767-4.588,10.872-9.007c1.111-2.331,1.54-4.925,1.557-7.493c0.016-2.498-0.115-5.58-1.266-7.852
			C532.47,271.502,531.969,270.871,531.33,270.397z"/>
	</g>
	<g id="POLYLINE_117_">
		
			<path fill="none" stroke="#FF6B6B" stroke-width="2.75" stroke-linecap="round" stroke-linejoin="round" stroke-miterlimit="10" d="
			M443.562,373.379c-1.705,5.14-3.032,10.367-3.715,15.746c-0.695,5.475-0.779,10.995-0.457,16.5
			c0.329,5.633,1.063,11.237,1.929,16.81c0.883,5.681,1.942,11.336,3.079,16.971c0.818,4.052,1.695,8.091,2.58,12.128
			c1.647,7.513,3.293,15.026,4.94,22.539c1.465,6.685,2.93,13.369,4.395,20.054c0.612,2.792,1.548,5.711,0.96,8.571
			c-1.17,5.689-2.298,11.352-3.139,17.103c-0.805,5.502-1.498,11.049-1.603,16.615c-0.103,5.443,0.46,10.863,1.494,16.204
			c0.961,4.965,2.236,9.889,3.646,14.745c1.99,6.853,3.981,13.707,5.971,20.56c1.416,4.877,2.811,9.749,4.084,14.665
			c1.45,5.603,2.776,11.234,3.972,16.897c1.12,5.301,2.021,10.661,2.531,16.057c0.247,2.607,0.664,5.297,0.601,7.916
			c-0.014,0.571-0.089,1.028-0.498,1.436c-0.489,0.488-0.967,0.684-1.141,1.385c-0.274,1.109,0.037,2.534,0.444,3.575
			c0.257,0.659,0.49,1.056,0.321,1.761c-0.455,1.895-1.783,3.739-2.835,5.341c-1.541,2.344-3.299,4.547-5.402,6.412
			c-1.851,1.642-4.019,2.932-5.792,4.655c-1.012,0.983-1.851,2.631-0.587,3.786c0.551,0.503,1.219,0.485,1.92,0.602
			c0.83,0.139,1.288,0.759,2.036,1.081c1.1,0.473,2.209-0.546,3.294,0.054c0.47,0.26,0.841,0.615,1.361,0.784
			c0.602,0.197,1.268,0.189,1.894,0.179c2.554-0.041,5.089-0.248,7.646-0.099c2.408,0.141,4.705,0.312,7.092-0.172
			c0.789-0.16,1.849-0.354,2.398-1.017c0.576-0.696,0.514-1.842,0.542-2.675c0.102-2.99,0.143-5.98,0.324-8.967
			c0.159-2.63,0.432-5.246,0.778-7.857c0.329-2.482,0.965-5.15,0.798-7.674c-0.164-2.483-0.681-4.962-0.919-7.444
			c-0.28-2.922-0.532-5.848-0.743-8.776c-0.427-5.917-0.706-11.841-0.906-17.769c-0.178-5.278-0.214-10.57-0.113-15.85
			c0.117-6.112,0.325-12.217,0.536-18.327c0.193-5.588,0.448-11.181,0.513-16.772c0.067-5.703-0.084-11.377-0.601-17.058
			c-0.514-5.655-1.355-11.277-1.993-16.919c-0.276-2.443-0.532-4.923-0.363-7.384c0.16-2.321,0.834-4.547,1.267-6.823
			c1.039-5.46,1.38-11.061,1.68-16.602c0.233-4.297,0.382-8.599,0.496-12.901c0.192-7.299,0.384-14.598,0.577-21.898
			c0.188-7.147,0.376-14.294,0.565-21.441c0.112-4.24,0.279-8.479,0.43-12.718c0.131-3.679,0.262-7.357,0.394-11.036
			c0.024-0.68-0.087-1.502,0.111-2.164"/>
	</g>
	<g id="POLYLINE_116_">
		
			<path fill="none" stroke="#FF6B6B" stroke-width="2.75" stroke-linecap="round" stroke-linejoin="round" stroke-miterlimit="10" d="
			M450.537,289.409c0.861,4.802,1.733,9.603,2.503,14.42c0.891,5.568,1.837,11.129,2.566,16.721
			c0.637,4.888,1.262,9.875,0.818,14.807c-0.441,4.897-1.996,9.595-3.673,14.189c-1.941,5.319-4.106,10.558-6.187,15.823
			c-0.094,0.238-0.188,0.476-0.282,0.713"/>
	</g>
	<g id="POLYLINE_115_">
		
			<path fill="none" stroke="#FF6B6B" stroke-width="2.75" stroke-linecap="round" stroke-linejoin="round" stroke-miterlimit="10" d="
			M446.733,366.019c1.713-0.031,3.491,0.489,5.15,0.852c2.843,0.623,5.679,1.281,8.522,1.907c4.763,1.048,9.564,1.971,14.404,2.58
			c4.886,0.615,9.82,0.914,14.744,0.931c5.142,0.017,10.278-0.205,15.4-0.644c5.238-0.449,10.462-1.069,15.66-1.854
			c2.392-0.361,4.778-0.795,7.133-1.351c2.113-0.499,4.064-1.306,6.123-1.956c0.755-0.238,1.451-0.365,1.904,0.367
			c0.263,0.424,0.369,0.962,0.492,1.437c0.285,1.095,0.616,2.138,0.994,3.204c0.231,0.65,0.637,1.527,0.425,2.24
			c-0.099,0.333-0.329,0.554-0.613,0.741c-1.405,0.926-3.288,1.216-4.838,1.855c-4.367,1.798-8.317,4.479-12.104,7.267
			c-3.919,2.886-7.688,5.99-11.276,9.279c-3.562,3.266-7.024,6.725-9.874,10.641c-1.516,2.083-2.811,4.299-4.119,6.514
			c-0.707,1.198-1.409,2.538-2.51,3.432c-1.632,1.325-3.519,0.55-4.624-1.037c-1.16-1.667-1.868-3.641-2.808-5.433
			c-1.08-2.057-2.343-4.005-3.799-5.816c-3.045-3.788-6.657-7.125-10.355-10.262c-3.745-3.178-7.672-6.155-11.755-8.886
			c-4.061-2.716-8.262-4.854-12.735-6.792c-1.135-0.492-2.778-1.108-2.891-2.553c-0.102-1.306,0.65-2.755,1.164-3.891
			c0.339-0.751,0.744-2.068,1.477-2.58C446.232,366.067,446.481,366.02,446.733,366.019z"/>
	</g>
	<g id="POLYLINE_114_">
		
			<path fill="none" stroke="#FF6B6B" stroke-width="2.75" stroke-linecap="round" stroke-linejoin="round" stroke-miterlimit="10" d="
			M535.131,366.315c-1.791-5.256-3.773-10.433-5.758-15.619c-1.7-4.441-3.388-8.955-4.102-13.677
			c-0.73-4.826-0.345-9.709,0.318-14.518c0.746-5.408,1.745-10.781,2.727-16.15c1.004-5.49,2.102-10.963,3.165-16.442
			c0.046-0.235,0.091-0.471,0.137-0.706"/>
	</g>
	<g id="POLYLINE_113_">
		
			<path fill="none" stroke="#FF6B6B" stroke-width="2.75" stroke-linecap="round" stroke-linejoin="round" stroke-miterlimit="10" d="
			M490.759,414.165c0.116,0.385,0.089,0.817,0.118,1.214c0.107,1.437,0.227,2.873,0.314,4.312c0.131,2.159,0.264,4.317,0.35,6.478
			c0.304,7.656,0.609,15.312,0.913,22.969c0.181,4.562,0.414,9.119,0.654,13.679c0.321,6.112,0.731,12.227,0.918,18.345
			c0.173,5.652-0.323,11.29-0.189,16.937c0.13,5.509,1.524,10.872,2.088,16.336c0.542,5.259,0.039,10.444-0.543,15.672
			c-0.653,5.86-1.318,11.707-1.572,17.601c-0.198,4.598-0.169,9.198-0.066,13.798c0.177,7.896,0.354,15.792,0.53,23.688
			c0.113,5.058,0.207,10.106,0.218,15.164c0.012,5.526-0.052,11.052-0.242,16.574c-0.189,5.501-0.541,10.988-0.972,16.474
			c-0.277,3.52-0.57,7.039-0.83,10.56c-0.114,1.544-0.295,3.191,0.034,4.722c1.037,4.827,0.626,9.834,0.898,14.748
			c0.143,2.592,0.212,5.282,0.682,7.839c0.179,0.976,0.498,2.015,1.269,2.691c0.85,0.745,2.086,0.9,3.172,0.956
			c1.171,0.061,2.334-0.06,3.504-0.074c0.602-0.007,1.191,0.111,1.788,0.113c1.314,0.006,2.54-0.802,3.866-0.72
			c0.666,0.041,1.135,0.499,1.76,0.667c1.183,0.318,2.582-0.361,3.714-0.588c1.704-0.342,3.463,0.021,5.148-0.345
			c1.28-0.277,2.757-1.125,3.724-1.968c0.315-0.275,0.495-0.579,0.553-0.997c0.435-3.137-2.653-4.109-4.695-5.488
			c-3.83-2.587-7.168-6.109-9.022-10.378c-0.555-1.278-1.123-2.752-1.107-4.175c0.011-0.974,0.457-1.335,0.872-2.145
			c0.09-0.176,0.144-0.264,0.126-0.463c-0.02-0.232-0.222-0.476-0.334-0.661c-0.328-0.542-0.642-1.067-0.834-1.675
			c-0.479-1.519-0.286-3.162-0.706-4.684c-0.287-1.04-0.286-1.849-0.155-2.955c0.627-5.271,1.804-10.519,2.899-15.709
			c1.353-6.415,2.768-12.809,4.219-19.202c1.205-5.309,2.558-10.587,3.966-15.845c1.473-5.499,3.083-10.956,4.685-16.419
			c1.659-5.658,3.415-11.302,4.849-17.023c1.314-5.242,2.121-10.504,1.885-15.921c-0.238-5.467-1.07-10.92-1.895-16.323
			c-0.919-6.02-1.909-12.023-2.981-18.017c-0.302-1.688-0.741-3.358-0.371-5.066c0.582-2.688,1.503-5.32,2.204-7.982
			c1.572-5.972,2.886-12.014,4.285-18.027c1.013-4.355,1.987-8.716,2.953-13.082c1.706-7.713,3.413-15.426,5.119-23.139
			c1.006-4.548,2.013-9.103,2.737-13.705c0.846-5.381,1.248-10.848,1.273-16.294c0.025-5.597-0.394-11.195-1.304-16.718
			c-0.885-5.365-2.211-10.637-3.687-15.866"/>
	</g>
	<g id="POLYLINE_112_">
		
			<path fill="none" stroke="#FF6B6B" stroke-width="2.75" stroke-linecap="round" stroke-linejoin="round" stroke-miterlimit="10" d="
			M486.089,409.445c0.018,0.005,0.036,0.01,0.054,0.015"/>
	</g>
	<g id="POLYLINE_84_">
		
			<path fill="none" stroke="#FF6B6B" stroke-width="2.75" stroke-linecap="round" stroke-linejoin="round" stroke-miterlimit="10" d="
			M323.508,365.219c-0.67-4.065-1.525-8.085-2.697-12.037c-1.217-4.102-2.77-8.083-4.236-12.099
			c-1.207-3.306-2.217-6.653-2.453-10.182c-0.253-3.792,0.258-7.537,0.813-11.278c0.285-1.921,0.581-3.833,0.662-5.776
			c0.082-1.959,0.024-3.921,0.062-5.88c0.077-3.982,0.451-7.953,0.898-11.908c0.843-7.449,1.809-14.89,2.897-22.307
			c1.509-10.292,3.019-20.584,4.528-30.876c0.04-0.272,0.08-0.544,0.12-0.816"/>
	</g>
	<g id="POLYLINE_83_">
		
			<path fill="none" stroke="#FF6B6B" stroke-width="2.75" stroke-linecap="round" stroke-linejoin="round" stroke-miterlimit="10" d="
			M216.807,364.106c6.736,1.485,13.497,2.773,20.309,3.861c6.725,1.074,13.486,1.979,20.271,2.572
			c6.67,0.583,13.358,0.749,20.045,0.378c6.53-0.362,13.049-1.133,19.527-2.015c7.144-0.972,14.215-2.183,21.301-3.506
			c1.504-0.281,5.235-1.487,5.869,0.79c0.283,1.017,0.256,2.144,0.295,3.191c0.051,1.37,0.107,2.74,0.152,4.111
			c0.108,3.254,0.208,6.508,0.312,9.762c0.252,7.862,0.548,15.724,0.755,23.588c0.176,6.686,0.291,13.385,0.229,20.074
			c-0.029,3.083,0.146,6.381-0.482,9.414c-0.105,0.505-0.226,1.05-0.713,1.304c-0.313,0.163-0.74,0.168-1.081,0.192
			c-1.222,0.084-2.468,0.019-3.692,0.012c-3.585-0.023-7.172-0.085-10.758-0.054c-6.92,0.06-13.819,0.228-20.732,0.562
			c-3.717,0.18-7.435,0.411-11.155,0.524c-1.234,0.037-2.446,0.025-3.674-0.058c-1.51-0.101-3.081,0.092-4.6,0.113
			c-6.922,0.098-13.85-0.44-20.773-0.496c-7.567-0.061-15.14,0.06-22.708,0.091c-2.355,0.01-4.805,0.165-7.136-0.183
			c-0.471-0.07-0.897-0.169-1.177-0.573c-0.613-0.886-0.458-2.408-0.523-3.438c-0.268-4.237-0.536-8.474-0.805-12.712
			c-0.455-7.182-0.893-14.358-1.234-21.546c-0.314-6.613-0.41-13.247-0.242-19.865c0.084-3.293,0.269-6.59,0.569-9.87
			c0.146-1.596,0.261-3.222,0.565-4.797c0.063-0.327,0.119-0.728,0.323-1.005C216.11,364.168,216.578,364.334,216.807,364.106z"/>
	</g>
	<g id="POLYLINE_82_">
		
			<path fill="none" stroke="#FF6B6B" stroke-width="2.75" stroke-linecap="round" stroke-linejoin="round" stroke-miterlimit="10" d="
			M273.372,454.126c0.295,4.805,0.602,9.754,1.975,14.394c0.619,2.094,1.649,4.056,2.094,6.202c0.365,1.763,0.376,3.585,0.354,5.378
			c-0.068,5.375-0.205,10.727,0.074,16.099c0.258,4.96,0.632,10.006,1.664,14.873c0.797,3.762,2.607,7.191,2.328,11.111
			c-0.388,5.444-1.939,10.903-3.046,16.224c-0.958,4.604-1.799,9.239-2.313,13.915c-0.533,4.844-0.697,9.697-0.351,14.561
			c0.354,4.978,1.16,9.913,2.238,14.782c1.08,4.881,2.626,9.658,3.506,14.583c0.875,4.892,0.957,9.849,0.783,14.803
			c-0.172,4.918-0.582,9.844-1.249,14.721c-0.345,2.521-0.785,5.026-1.409,7.494c-0.411,1.626-0.977,3.265-0.958,4.962
			c0.041,3.57,1.522,6.953,0.887,10.554c-0.353,2.004-1.195,3.757-2.116,5.547c-0.746,1.449-0.884,3.131-1.08,4.725
			c-0.286,2.325-0.491,4.669-0.528,7.012c-0.027,1.711-0.032,3.512,0.444,5.171c0.58,2.02,1.959,3.051,3.992,3.297
			c1.023,0.124,2.239,0.211,3.193-0.266c0.543-0.271,0.867-1.008,1.404-1.194c0.817-0.284,1.51,1.047,2.245,1.312
			c0.649,0.234,1.35,0.115,1.975-0.136c0.355-0.143,0.7-0.327,0.984-0.586c0.129-0.117,0.24-0.371,0.415-0.426
			c0.252-0.079,0.492,0.126,0.695,0.247c1.075,0.64,1.935,1.112,3.23,0.953c0.785-0.096,1.453-0.366,2.091-0.828
			c0.341-0.247,0.672-0.579,1.122-0.547c0.675,0.048,1.263,0.724,1.824,1.036c0.645,0.359,1.373,0.604,2.119,0.566
			c0.963-0.05,1.825-0.459,2.805-0.345c0.752,0.087,1.628,0.438,2.383,0.157c1.698-0.631,1.689-3.622,1.681-5.035
			c-0.026-4.619-1.134-9.478-2.453-13.886c-0.853-2.85-2.503-5.43-2.195-8.482c0.205-2.032,0.497-3.843,0.42-5.89
			c-0.085-2.264,0.02-4.532,0.172-6.791c0.351-5.217,0.851-10.431,1.538-15.615c0.597-4.505,1.691-8.894,2.777-13.299
			c1.405-5.698,2.844-11.386,4.143-17.109c1.113-4.901,2.095-9.838,2.906-14.799c0.809-4.954,1.448-9.945,1.714-14.96
			c0.263-4.968,0.134-9.95-0.312-14.904c-0.465-5.175-1.333-10.29-2.18-15.412c-0.837-5.065-1.7-10.116-2.011-15.248
			c-0.291-4.798,0.092-9.522,1.013-14.237c1.003-5.135,2.156-10.239,3.125-15.381c0.976-5.178,1.826-10.377,2.67-15.578
			c0.819-5.052,1.598-10.111,2.317-15.178c0.706-4.981,1.351-9.971,1.956-14.964"/>
	</g>
	<g id="POLYLINE_81_">
		
			<path fill="none" stroke="#FF6B6B" stroke-width="2.75" stroke-linecap="round" stroke-linejoin="round" stroke-miterlimit="10" d="
			M217.749,438.194c0.608,5.195,1.453,10.341,2.715,15.42c1.163,4.68,2.501,9.317,3.776,13.967
			c1.866,6.803,3.732,13.606,5.598,20.409c1.156,4.216,2.322,8.441,3.28,12.707c0.374,1.663,0.773,3.401,0.628,5.117
			c-0.184,2.18-0.817,4.339-1.112,6.512c-0.7,5.156-0.909,10.379-0.92,15.578c-0.011,5.299,0.201,10.599,0.592,15.883
			c0.392,5.295,0.994,10.57,1.773,15.822c0.755,5.089,1.744,10.152,2.949,15.153c1.276,5.292,2.696,10.55,4.264,15.764
			c1.742,5.793,3.597,11.554,5.395,17.33c1.346,4.323,2.729,8.647,3.64,13.087c0.967,4.713,0.857,9.281,0.374,14.039
			c-0.25,2.469-0.559,4.93-0.476,7.416c0.062,1.86,0.483,3.804,0.216,5.661c-0.137,0.952-0.602,1.745-1.143,2.524
			c-1.537,2.213-3.015,4.396-4.298,6.771c-1.182,2.189-2.28,4.429-3.251,6.72c-0.751,1.773-1.524,3.63-1.768,5.556
			c-0.207,1.637,0.236,3.547,1.772,4.433c1.364,0.788,3.617,0.973,5.062,0.322c0.462-0.208,0.787-0.534,1.307-0.499
			c1.146,0.077,2.012,0.714,3.221,0.54c1.31-0.189,2.59-0.858,3.938-0.682c1.119,0.146,2.096,0.903,3.239,0.903
			c1.201,0,2.241-0.773,3.26-1.299c0.332-0.172,0.697-0.373,1.083-0.299c0.61,0.118,1.102,0.736,1.675,0.99
			c1.046,0.463,2.246,0.515,3.371,0.476c2.069-0.071,5.107-0.389,6.18-2.5c0.676-1.331,0.756-2.968,0.895-4.421
			c0.246-2.57,0.376-5.158,0.4-7.74c0.021-2.285-0.02-4.592-0.446-6.843c-0.29-1.532-0.949-3.08-0.9-4.66
			c0.049-1.575,0.783-3.079,1.214-4.567c0.411-1.421,0.59-2.838,0.5-4.315c-0.294-4.865-2.151-9.544-2.799-14.372
			c-0.68-5.062-0.682-10.189-0.531-15.285c0.163-5.498,0.551-10.982,0.949-16.466c0.378-5.198,0.882-10.382,1.411-15.566
			c0.532-5.214,1.077-10.415,1.162-15.66c0.081-5.01-0.169-10.056-1.041-14.997c-0.936-5.306-2.638-10.447-4.183-15.597
			c-1.355-4.516-2.458-9.075-2.976-13.769c-0.556-5.039-0.55-10.122-0.244-15.178c0.311-5.136,0.893-10.27,1.649-15.359
			c0.797-5.364,1.869-10.635,2.943-15.946c1.018-5.038,1.088-10.211,1.226-15.332c0.115-4.289,0.152-8.588,0.138-12.879
			c-0.022-6.809-0.044-13.619-0.067-20.428c-0.016-4.815-0.031-9.629-0.047-14.444"/>
	</g>
	<g id="POLYLINE_80_">
		
			<path fill="none" stroke="#FF6B6B" stroke-width="2.75" stroke-linecap="round" stroke-linejoin="round" stroke-miterlimit="10" d="
			M208.31,242.611c0.779,3.944,1.583,7.828,2.866,11.646c1.418,4.221,3.076,8.362,4.608,12.542c0.588,1.605,1.184,3.224,1.606,4.883
			c0.39,1.533,0.38,3.05,0.542,4.613c0.422,4.072,1.758,8.044,2.525,12.06c0.782,4.093,0.998,8.15,1.007,12.308
			c0.008,3.787,0.139,7.475,0.807,11.213c0.719,4.02,1.689,8.01,1.556,12.121c-0.126,3.874-0.837,7.733-1.496,11.544
			c-1.521,8.806-3.231,17.566-5.055,26.314c-0.156,0.75-0.313,1.5-0.469,2.25"/>
	</g>
	<g id="POLYLINE_79_">
		
			<path fill="none" stroke="#FF6B6B" stroke-width="2.75" stroke-linecap="round" stroke-linejoin="round" stroke-miterlimit="10" d="
			M288.343,166.127c-0.349,2.045-0.311,4.146-0.176,6.209c0.134,2.057,0.211,4.234,0.691,6.245c0.734,3.073,3.279,5.516,5.557,7.531
			c3.581,3.168,7.691,5.709,11.939,7.878c4.42,2.256,9.027,4.192,13.732,5.768c2.322,0.778,4.683,1.473,7.088,1.946
			c2.238,0.44,4.522,0.499,6.764,0.897c2.433,0.432,4.303,1.662,5.808,3.615c2.8,3.634,4.507,8.214,6.104,12.471
			c1.753,4.673,3.237,9.455,4.465,14.292c1.214,4.783,2.173,9.651,2.501,14.582c0.333,5.005-0.065,9.983-0.447,14.972
			c-0.388,5.062-0.662,10.103-0.649,15.183c0.014,5.243,0.193,10.482,0.342,15.722c0.147,5.148,0.503,10.358,0.183,15.507
			c-0.067,1.083-0.194,2.152-0.367,3.223c-0.069,0.424-0.147,0.837-0.086,1.265c0.223,1.579,1.269,3.128,1.91,4.556
			c1.918,4.275,2.913,8.655,3.127,13.333c0.224,4.9-0.164,9.829-0.587,14.709c-0.463,5.341-1.029,10.674-1.473,16.017
			c-0.416,5.002-0.351,9.997-0.55,15.007c-0.203,5.091-0.867,10.144-0.788,15.248c0.077,4.95,0.861,9.819,1.838,14.662
			c0.966,4.782,2.328,9.577,2.686,14.46c0.334,4.559-1.007,8.817-2.38,13.106c-1.63,5.094-3.244,10.198-5.091,15.218
			c-0.697,1.895-1.406,3.884-2.547,5.567c-0.451,0.666-1.021,1.357-1.807,1.63c-1.505,0.523-3.045-0.641-3.946-1.743
			c-1.182-1.447-1.54-3.226-1.347-5.053c0.341-3.214,2.139-6.673,0.983-9.93c-0.513-1.447-2.153-1.043-3.234-1.903
			c-1.319-1.049-1.953-2.668-1.978-4.322c-0.033-2.178,0.381-4.345,0.377-6.527c-0.005-2.437-0.293-4.878-0.687-7.28
			c-0.393-2.398-0.917-4.776-1.661-7.091c-0.451-1.402-1.206-2.915-1.258-4.42c-0.031-0.904,0.399-1.661,0.833-2.426
			c1.113-1.964,1.958-3.975,2.599-6.14c1.275-4.306,2.03-8.79,1.169-13.244c-0.927-4.793-2.623-9.486-4.055-14.142
			c-1.65-5.365-3.285-10.731-4.872-16.115c-1.384-4.695-2.673-9.439-3.582-14.251c-0.842-4.458-1.287-9.009-0.443-13.501
			c0.338-1.798,1.016-3.607,1.074-5.445c0.033-1.024-0.305-1.943-0.707-2.87c-1.951-4.495-3.003-9.138-3.829-13.958
			c-0.855-4.99-1.475-10.041-1.88-15.087c-0.399-4.973-0.651-9.941-0.642-14.931"/>
	</g>
	<g id="POLYLINE_78_">
		
			<path fill="none" stroke="#FF6B6B" stroke-width="2.75" stroke-linecap="round" stroke-linejoin="round" stroke-miterlimit="10" d="
			M247.744,169.827c0.816,3.164,0.574,6.848-1.126,9.692c-1.736,2.904-4.963,4.647-7.707,6.447
			c-4.231,2.776-8.474,5.542-12.76,8.233c-2.025,1.272-4.061,2.46-6.3,3.32c-2.109,0.81-4.269,1.483-6.412,2.193
			c-4.458,1.479-9.401,2.636-13.462,5.088c-3.543,2.14-6.06,5.338-7.894,9.008c-2.127,4.256-3.509,8.88-4.702,13.471
			c-1.244,4.786-2.258,9.644-2.913,14.547c-0.618,4.633-0.757,9.271-0.192,13.917c0.615,5.057,1.516,10.063,2.04,15.133
			c0.503,4.856,0.824,9.747,0.965,14.628c0.069,2.378,0.102,4.765-0.079,7.139c-0.171,2.242-0.723,4.417-0.966,6.647
			c-0.505,4.63,0.033,9.404-1.122,13.953c-0.58,2.284-1.45,4.483-2.03,6.768c-0.551,2.171-0.919,4.384-1.154,6.611
			c-0.517,4.907-0.452,9.867-0.333,14.792c0.123,5.121,0.428,10.239,0.82,15.346c0.426,5.541,0.981,11.074,1.472,16.61
			c0.395,4.446,0.608,8.902,0.726,13.364c0.132,4.976,0.166,9.971-0.126,14.943c-0.276,4.692-0.975,9.248-2.433,13.725
			c-0.911,2.794-2.239,5.746-1.349,8.716c0.387,1.293,1.149,2.429,1.637,3.684c0.608,1.565,1.098,3.177,1.621,4.771
			c2.047,6.234,4.093,12.469,6.14,18.703c0.355,1.082,0.637,2.288,1.247,3.258c0.166,0.263,0.349,0.506,0.65,0.617
			c1.096,0.404,2.904-0.578,3.772-1.168c1.677-1.14,2.385-2.927,2.525-4.898c0.134-1.879-0.208-3.736-0.653-5.553
			c-0.316-1.291-0.809-2.686-0.707-4.041c0.082-1.092,0.646-2.042,1.768-2.269c1.561-0.317,2.385-0.264,2.788-2.028
			c0.479-2.098,0.395-4.379,0.514-6.511c0.126-2.267,0.353-4.521,0.704-6.765c0.377-2.414,0.861-4.81,1.411-7.19
			c0.51-2.208,1.273-4.396,1.603-6.639c0.433-2.934-1.412-5.439-2.508-8.026c-1.773-4.183-2.506-8.69-2.389-13.223
			c0.123-4.79,1.236-9.434,2.68-13.981c1.522-4.792,3.35-9.48,4.975-14.237c1.583-4.634,2.942-9.355,3.747-14.192
			c0.807-4.843,0.908-9.692,0.718-14.587c-0.181-4.678-0.788-9.483,0.117-14.12c0.452-2.316,1.177-4.569,1.653-6.88
			c0.477-2.317,0.746-4.67,0.951-7.025c0.425-4.872,0.578-9.767,0.769-14.653c0.19-4.844,0.332-9.606,1.19-14.387"/>
	</g>
	<g id="POLYLINE_77_">
		
			<path fill="none" stroke="#FF6B6B" stroke-width="2.75" stroke-linecap="round" stroke-linejoin="round" stroke-miterlimit="10" d="
			M237.877,137.551c-0.308-0.754-0.858-1.563-1.763-1.577c-1.034-0.016-1.592,1.109-1.892,1.938
			c-0.865,2.393-0.584,5.14,0.063,7.545c0.974,3.622,2.91,7.436,5.466,10.205c0.691,0.748,2.397,2.419,3.328,1.063
			c-0.026,4.23,1.272,9.198,4.08,12.466c1.947,2.265,4.447,4.188,6.724,6.104c2.133,1.795,4.428,3.403,6.957,4.591
			c4.469,2.1,10.19,3.415,14.979,1.627c4.65-1.735,7.617-6.246,9.965-10.372c2.799-4.92,5.285-10.318,5.266-16.081
			c-0.002-0.711-0.031-1.422-0.058-2.133c0.622,0.442,0.758,0.816,1.584,0.601c1.716-0.448,2.956-2.18,3.715-3.663
			c1.665-3.249,2.495-7.356,2.481-10.992c-0.005-1.361-0.188-3.413-1.755-3.895c-0.969-0.298-1.916,0.145-2.57,0.853
			c-0.175,0.189-0.332,0.396-0.489,0.6c0.32-4.19,0.828-8.429,0.67-12.638c-0.138-3.687-1.017-7.274-2.645-10.586
			c-3.079-6.264-8.406-10.751-15.086-12.753c-7.452-2.233-15.636-1.903-23.003,0.484c-5.958,1.931-13.101,5.266-15.702,11.39
			c-1.363,3.208-1.685,6.811-1.807,10.259c-0.141,4.009,0.142,7.973,0.868,11.919C237.444,135.525,237.658,136.538,237.877,137.551z
			"/>
	</g>
	<g id="POLYLINE_76_">
		
			<path fill="none" stroke="#FF6B6B" stroke-width="2.75" stroke-linecap="round" stroke-linejoin="round" stroke-miterlimit="10" d="
			M504.296,189.231c-0.756,4.347-0.706,8.877-0.199,13.253c0.49,4.231,1.943,8.249,4.702,11.533
			c3.029,3.606,7.142,6.316,11.219,8.592c3.993,2.229,8.339,4.34,12.888,5.083c1.947,0.318,3.936,0.314,5.849,0.831
			c2.052,0.554,4.022,1.481,5.815,2.614c2.766,1.748,4.873,3.973,5.764,7.166c1.288,4.614,1.167,9.681,1.243,14.432
			c0.068,4.237,0.072,8.479,0.008,12.717c-0.103,6.773-0.206,13.546-0.31,20.32c-0.068,4.429-0.138,8.856-0.169,13.285
			c-0.036,5.183-0.091,10.369,0.136,15.549c0.209,4.772,0.609,9.501,1.943,14.108c1.378,4.759,2.657,9.399,3.229,14.338
			c0.606,5.234,0.897,10.493,1.157,15.753c0.252,5.094,0.382,10.202,0.433,15.302c0.057,5.709-0.011,11.422-0.018,17.131
			c-0.005,4.193,0.166,8.362,0.785,12.515c0.748,5.019,1.936,9.959,3.066,14.903c1.026,4.49,2.526,9.23,2.527,13.873
			c0,1.625-0.366,3.143-0.842,4.69c-0.697,2.269-1.459,4.527-2.542,6.646c-1.794,3.513-4.633,6.431-8.077,8.363
			c-0.706,0.396-2.35,1.427-3.213,0.806c-0.455-0.328-0.389-0.958-0.217-1.42c0.529-1.417,1.788-2.548,2.6-3.804
			c0.839-1.297,1.4-2.683,1.665-4.207c0.382-2.194,0.306-4.472,0.175-6.686c-0.121-2.047-0.252-4.203-0.838-6.179
			c-0.156-0.526-0.463-1.664-1.204-1.649c-1.17,0.023-1.748,2.44-1.98,3.216c-0.491,1.643-0.787,3.381-0.704,5.1
			c0.083,1.716,0.727,3.281,1.104,4.94c0.189,0.833,0.455,2.539-0.447,3.118c-0.519,0.333-0.928-0.131-1.2-0.558
			c-0.894-1.405-1.266-3.217-1.704-4.797c-0.574-2.072-1.272-4.159-1.314-6.327c-0.045-2.303,0.361-4.624,0.726-6.89
			c0.432-2.682,0.898-5.36,1.379-8.034c0.417-2.318,0.832-4.646,1.394-6.934c0.344-1.401,0.898-2.672,0.848-4.133
			c-0.073-2.114-0.574-4.242-1.001-6.306c-0.495-2.394-1.035-4.778-1.575-7.162c-0.876-3.865-1.771-7.72-2.702-11.572
			c-1.688-6.985-3.377-13.97-5.065-20.956c-1.245-5.15-2.493-10.3-3.735-15.451c-1.012-4.2-1.491-8.375-1.708-12.686
			c-0.278-5.535-0.471-11.078-0.691-16.616c-0.189-4.772-0.306-9.548-0.457-14.321c-0.161-5.073-0.322-10.146-0.483-15.219"/>
	</g>
	<g id="POLYLINE_75_">
		
			<path fill="none" stroke="#FF6B6B" stroke-width="2.75" stroke-linecap="round" stroke-linejoin="round" stroke-miterlimit="10" d="
			M533.813,276.088c0.564-3.329,1.216-6.577,2.145-9.825"/>
	</g>
	<g id="POLYLINE_74_">
		
			<path fill="none" stroke="#FF6B6B" stroke-width="2.75" stroke-linecap="round" stroke-linejoin="round" stroke-miterlimit="10" d="
			M478.415,189.377c0.834,4.551,0.626,9.203-0.251,13.731c-0.839,4.327-2.532,8.395-5.535,11.676
			c-3.014,3.293-6.943,5.724-10.869,7.774c-4.183,2.184-8.594,3.914-13.168,5.079c-2.388,0.609-4.815,1.051-7.206,1.644
			c-1.567,0.389-3.151,0.833-4.545,1.671c-1.847,1.111-3.134,2.85-3.996,4.801c-1.802,4.08-2.172,8.799-2.473,13.197
			c-0.345,5.044-0.414,10.098-0.44,15.152c-0.019,3.588,0.047,7.176,0.086,10.763c0.078,7.236,0.155,14.472,0.233,21.708
			c0.058,5.368,0.115,10.735,0.173,16.103c0.042,3.926,0.043,7.902-0.363,11.81c-0.466,4.477-2.225,8.732-3.35,13.07
			c-1.232,4.754-2.218,9.564-2.646,14.461c-0.408,4.663-0.451,9.362-0.424,14.04c0.034,6.015,0.122,12.03,0.183,18.045
			c0.044,4.322,0.07,8.644-0.043,12.965c-0.124,4.742-0.412,9.527-1.557,14.147c-1.163,4.69-2.886,9.186-3.841,13.939
			c-0.798,3.973-1.439,8.186-0.653,12.214c0.681,3.488,2.541,6.631,4.714,9.397c1.359,1.729,2.88,3.349,4.559,4.772
			c0.928,0.786,1.992,1.694,3.177,2.08c0.495,0.161,1.029,0.208,1.363-0.255c1.033-1.429-0.969-3.712-1.644-4.743
			c-1.815-2.776-2.632-5.77-2.503-9.07c0.083-2.121,0.401-4.256,0.918-6.314c0.26-1.034,0.561-2.445,1.399-3.206
			c1.039-0.944,1.25,0.841,1.528,1.65c0.603,1.753,1.131,3.604,1.208,5.467c0.068,1.642-0.363,3.207-0.644,4.811
			c-0.104,0.594-0.536,2.85,0.305,3.177c0.956,0.371,1.986-2.673,2.141-3.027c1.091-2.49,2.39-5.199,1.966-7.975
			c-0.761-4.977-1.72-9.94-2.675-14.884c-0.464-2.404-1.001-4.809-1.196-7.254c-0.174-2.175-0.088-4.361,0.124-6.53
			c0.468-4.786,1.418-9.546,2.416-14.246c1.122-5.283,2.314-10.551,3.557-15.806c1.238-5.234,2.544-10.452,3.817-15.678
			c1.07-4.394,2.206-8.786,3.462-13.131c0.683-2.363,1.532-4.698,2.037-7.107c0.469-2.239,0.597-4.533,0.721-6.812
			c0.277-5.079,0.326-10.17,0.445-15.254c0.103-4.417,0.211-8.833,0.3-13.25c0.112-5.521,0.224-11.043,0.336-16.564"/>
	</g>
	<g id="POLYLINE_73_">
		
			<path fill="none" stroke="#FF6B6B" stroke-width="2.75" stroke-linecap="round" stroke-linejoin="round" stroke-miterlimit="10" d="
			M445.906,266.599c0.428,3.773,1.03,7.539,1.878,11.242"/>
	</g>
	<g id="POLYLINE_72_">
		
			<path fill="none" stroke="#FF6B6B" stroke-width="2.75" stroke-linecap="round" stroke-linejoin="round" stroke-miterlimit="10" d="
			M471.147,181.195c3.206,5.499,8.767,10.637,15.055,12.235c6.373,1.619,13.995-0.975,19.071-4.907
			c2.689-2.083,4.4-4.858,5.919-7.854"/>
	</g>
	<g id="POLYLINE_71_">
		
			<path fill="none" stroke="#FF6B6B" stroke-width="2.75" stroke-linecap="round" stroke-linejoin="round" stroke-miterlimit="10" d="
			M478.725,199.412c-1.171,3.856-3.569,6.988-7,9.176c-0.336,0.214-1.125,0.798-1.269,0.153c-0.092-0.411,0.415-1.033,0.657-1.293
			c0.686-0.739,1.246-1.158,1.611-2.148c0.343-0.929,0.569-1.911,0.749-2.882c0.043-0.23,0.321-1.108,0.161-1.327
			c-0.221-0.302-0.845,1.211-0.957,1.408c-0.625,1.1-1.344,2.127-2.279,2.985c-0.734,0.673-1.802,1.626-2.829,1.843
			c-1.147,0.243,0.059-1.453,0.233-1.872c0.729-1.762,0.861-3.987,0.193-5.786c-0.055-0.149-0.3-0.897-0.556-0.865
			c-0.046,0.006-0.276,0.465-0.317,0.52c-0.294,0.388-0.7,0.699-1.089,0.986c-1.533,1.13-3.324,2.213-5.095,2.922
			c-0.201,0.081-0.58,0.312-0.634,0.042c-0.029-0.144,0.33-0.47,0.403-0.559c0.732-0.891,1.387-1.79,2.031-2.749
			c0.626-0.933,1.204-1.778,1.502-2.87c0.52-1.908,0.561-3.973,0.594-5.938c0.018-1.086,0.038-2.195-0.086-3.276
			c-0.015-0.134-0.006-0.586-0.131-0.684c-0.283-0.222-0.433,0.33-0.556,0.581c-0.663,1.346-1.283,2.687-2.36,3.76
			c-0.993,0.989-2.22,1.738-3.485,2.326c-0.444,0.206-2.265,1.225-2.805,0.915c-0.398-0.229,0.448-0.566,0.656-0.711
			c1.55-1.082,2.874-2.404,4.025-3.9c2.175-2.829,3.275-6.101,3.378-9.665c0.141-4.872-0.666-9.743-0.773-14.613
			c-0.103-4.7,0.206-9.398,0.977-14.037c0.767-4.616,1.938-9.287,4.058-13.481c1.744-3.45,4.257-6.476,7.454-8.669
			c3.664-2.514,8.043-3.865,12.441-4.301c3.113-0.309,6.907-0.441,9.753,1.108c0.779,0.424,1.289,1.16,2.026,1.604
			c0.209,0.127,0.372,0.188,0.622,0.191c0.876,0.014,1.704-0.466,2.616-0.443c1.474,0.037,3.062,0.369,4.441,0.877
			c2.86,1.054,5.124,4.072,6.485,6.681c2.048,3.926,2.809,8.398,3.376,12.745c0.618,4.737,0.916,9.524,1.024,14.298
			c0.113,5.023-0.209,10.047-0.061,15.068c0.123,4.161,0.875,8.467,2.746,12.219c0.49,0.984,1.086,1.918,1.845,2.717
			c0.232,0.245,1.386,0.935,1.282,1.362c-0.17,0.697-1.79-0.445-1.954-0.568c-0.481-0.359-3.452-3.638-3.896-2.994
			c-0.083,0.12,0.017,0.465,0.031,0.578c0.113,0.9,0.326,1.775,0.386,2.684c0.104,1.577-0.038,3.209,0.366,4.755
			c0.201,0.768,0.572,1.456,1.052,2.084c0.46,0.602,1.081,1.086,1.515,1.701c0.066,0.093,0.199,0.219,0.213,0.341
			c0.082,0.728-1.186,0.464-1.581,0.409c-2.571-0.361-5.058-1.409-6.862-3.298c-0.258-0.27-1.388-2.146-1.994-1.481
			c-0.31,0.34-0.197,1.192-0.178,1.604c0.1,2.108,0.777,4.159,1.465,6.137c0.356,1.023,0.77,2.033,1.08,3.071
			c0.043,0.142,0.242,0.575,0.16,0.737c-0.12,0.239-0.155,0.127-0.393,0.03c-0.63-0.257-1.255-1.001-1.738-1.471
			c-0.609-0.593-1.156-1.247-1.637-1.948c-1.351-1.972-2.097-4.261-3.076-6.422c-0.057-0.127-0.382-1.112-0.69-1.043
			c-0.338,0.076-0.211,1.294-0.209,1.445c0.052,4.16,0.551,8.646,1.98,12.572"/>
	</g>
	<g id="POLYLINE_70_">
		
			<path fill="none" stroke="#FF6B6B" stroke-width="2.75" stroke-linecap="round" stroke-linejoin="round" stroke-miterlimit="10" d="
			M471.147,181.195c-0.259-2.398-0.334-4.73-0.148-7.138c0.104-1.344,0.234-2.687,0.414-4.023c0.062-0.456,0.034-1.72,0.393-2.093
			c0.244-0.254,0.244,0.01,0.331,0.341c0.51,1.947,0.552,3.954,1.426,5.807c0.098,0.208,0.348,0.905,0.558,0.602
			c0.253-0.364-0.193-1.653-0.236-2.087c-0.102-1.031-0.126-2.071-0.044-3.105c0.293-3.68,1.967-7.254,4.315-10.069
			c2.883-3.456,6.989-5.59,11.053-7.347c3.196-1.382,7.316-2.437,9.585-5.29c0.419-0.526,0.774-1.1,1.091-1.692
			c0.159-0.298,0.431-1.325,0.793-1.476c0.381-0.16,0.623,0.4,0.928,0.623c0.735,0.536,1.69,0.662,2.468,1.14
			c0.813,0.5,1.463,1.215,1.988,2.005c1.237,1.861,1.873,4.091,2.429,6.232c0.661,2.544,1.159,5.131,1.589,7.723
			c0.846,5.09,1.64,10.332,1.38,15.505c-0.064,1.273-0.174,2.545-0.267,3.817"/>
	</g>
</g>
<g id="AG-OUTLINE">
	<g id="POLYLINE_69_">
		
			<path fill="none" stroke="#FF6B6B" stroke-width="3.5" stroke-linecap="round" stroke-linejoin="round" stroke-miterlimit="10" d="
			M273.367,454.126c0.222,3.582,0.497,7.173,1.131,10.709c0.27,1.505,0.609,3.002,1.09,4.455c0.537,1.621,1.291,3.169,1.712,4.829
			c0.703,2.768,0.498,5.695,0.448,8.522c-0.066,3.689-0.138,7.377,0.007,11.066c0.27,6.905,0.579,14.2,2.693,20.828
			c0.823,2.582,1.604,4.871,1.414,7.604c-0.235,3.394-1.069,6.747-1.763,10.068c-1.51,7.233-3.088,14.462-3.85,21.822
			c-0.095,0.92-0.175,1.84-0.252,2.761c-0.503-6.502-1.524-12.711-3.384-18.969c-1.97-6.628-4.103-13.162-4.865-20.065
			c-0.737-6.683-0.487-13.431,0.145-20.112c0.659-6.976,1.636-13.959,3.012-20.831c0.65-3.248,1.495-6.45,1.844-9.752
			c0.356-3.369,0.462-6.761,0.548-10.145C273.319,455.987,273.343,455.056,273.367,454.126z"/>
	</g>
	<g id="POLYLINE_68_">
		
			<path fill="none" stroke="#FF6B6B" stroke-width="3.5" stroke-linecap="round" stroke-linejoin="round" stroke-miterlimit="10" d="
			M217.749,438.194c0.815,6.96,2.201,13.746,4.054,20.501c2.7,9.842,5.399,19.685,8.099,29.528c0.808,2.946,1.593,5.9,2.344,8.861
			c0.716,2.82,1.798,5.973,1.482,8.924c-0.177,1.653-0.634,3.279-0.89,4.923c-0.294,1.891-0.512,3.793-0.674,5.7
			c-0.325,3.817-0.446,7.652-0.449,11.483c-0.005,7.935,0.452,15.883,1.346,23.768c0.921,8.117,2.343,16.144,4.257,24.086
			c1.8,7.47,4.051,14.807,6.334,22.14c2.442,7.844,5.386,15.757,6.875,23.862c0.63,3.431,0.718,6.852,0.436,10.324
			c-0.303,3.734-0.925,7.429-0.685,11.185c0.127,1.98,0.641,4.249-0.344,6.101c-0.714,1.342-1.747,2.512-2.581,3.78
			c-1.042,1.583-1.966,3.244-2.845,4.922c-1.654,3.154-3.359,6.486-4.249,9.953c-0.385,1.498-0.589,3.153,0.259,4.531
			c1.418,2.307,4.674,2.374,6.874,1.302c0.971-0.473,1.909,0.282,2.917,0.387c1.975,0.205,3.749-1.151,5.734-0.53
			c1.792,0.56,2.674,1.021,4.441,0.138c0.678-0.339,1.662-1.252,2.52-0.969c0.536,0.177,0.965,0.686,1.489,0.925
			c0.639,0.292,1.339,0.42,2.035,0.474c2.016,0.158,4.591-0.028,6.361-1.152c1.386-0.88,1.7-2.549,1.908-4.065
			c0.508-3.707,0.65-7.525,0.583-11.264c-0.031-1.699-0.132-3.398-0.453-5.069c-0.256-1.33-0.753-2.636-0.868-3.989
			c-0.196-2.313,1.175-4.487,1.564-6.72c0.472-2.712-0.171-5.506-0.794-8.14c-0.883-3.733-1.762-7.409-2.13-11.237
			c-0.75-7.793-0.267-15.714,0.24-23.508c0.548-8.417,1.361-16.803,2.217-25.193c0.359-3.517,0.591-7.031,0.793-10.561
			c0.212,5.528,0.953,11.014,2.082,16.428c1.135,5.444,2.883,10.752,3.863,16.227c0.964,5.39,0.967,10.861,0.72,16.314
			c-0.25,5.496-0.729,11.036-1.686,16.457c-0.453,2.57-1.296,5.059-1.735,7.624c-0.294,1.722,0.024,3.414,0.326,5.115
			c0.349,1.966,0.753,3.954,0.572,5.961c-0.176,1.954-0.819,3.852-1.712,5.591c-0.921,1.793-1.316,3.317-1.576,5.34
			c-0.328,2.554-0.556,5.132-0.582,7.708c-0.025,2.468-0.112,6.316,2.505,7.66c1.599,0.821,4.43,1.064,5.818-0.257
			c1.216-1.158,1.043-0.593,2.415,0.337c0.553,0.375,1.17,0.486,1.824,0.361c0.519-0.099,1.073-0.318,1.494-0.642
			c0.177-0.136,0.353-0.463,0.542-0.541c0.273-0.114,0.427,0.02,0.689,0.169c1.173,0.664,2.05,1.188,3.452,0.972
			c1.035-0.159,1.557-0.707,2.447-1.181c0.288-0.154,0.496-0.208,0.816-0.123c0.871,0.233,1.548,1.053,2.427,1.352
			c1.026,0.349,1.834,0.08,2.867-0.101c1.386-0.243,3.255,0.869,4.312-0.396c0.77-0.921,0.91-2.378,0.976-3.522
			c0.137-2.371-0.241-4.772-0.653-7.099c-0.47-2.654-1.027-5.308-1.805-7.891c-0.594-1.97-1.624-3.833-2.071-5.84
			c-0.284-1.273-0.113-2.564,0.083-3.838c0.356-2.309,0.186-4.503,0.215-6.832c0.068-5.418,0.642-10.869,1.256-16.248
			c0.582-5.101,1.497-10.068,2.725-15.051c1.548-6.276,3.148-12.541,4.579-18.845c1.212-5.337,2.3-10.712,3.143-16.121
			c0.873-5.606,1.553-11.243,1.684-16.921c0.128-5.538-0.23-11.066-0.915-16.56c-0.709-5.684-1.814-11.309-2.688-16.969
			c-0.806-5.22-1.353-10.553-1.029-15.837c0.369-6.014,1.932-11.954,3.146-17.833c1.024-4.961,1.937-9.953,2.747-14.953
			c1.022-6.302,2.008-12.603,2.949-18.918c0.39-2.62,0.736-5.246,1.089-7.871c0.205-1.525,0.419-3.048,0.616-4.574
			c0.175-1.356,0.16-2.852,0.507-4.171c0.124-0.472,0.113-0.257,0.401-0.502c0.102-0.087,0.188-0.156,0.27-0.266
			c0.755-1.012,0.595-2.979,0.658-4.14c0.301-5.573,0.199-11.183,0.12-16.76c-0.069-4.869-0.192-9.737-0.348-14.604
			c-0.253-7.908-0.506-15.815-0.759-23.723c-0.055-1.705-0.104-3.41-0.165-5.114c-0.058-1.6-0.091-3.205-0.19-4.803
			c-0.044-0.719-0.047-1.541-0.315-2.224c-0.076-0.193-0.177-0.339-0.292-0.506c-0.297-0.433-0.337-0.746-0.439-1.349
			c-0.454-2.672-1.006-5.326-1.688-7.949c-1.423-5.473-3.519-10.692-5.401-16.013c-1.672-4.727-2.443-9.389-2.063-14.405
			c0.211-2.786,0.698-5.537,1.092-8.301c0.376-2.64,0.375-5.28,0.381-7.941c0.013-5.429,0.606-10.825,1.245-16.21
			c0.661-5.574,1.416-11.136,2.153-16.701c-0.01,5.151,0.23,10.294,0.682,15.425c0.473,5.363,1.143,10.714,2.084,16.015
			c0.442,2.489,0.962,4.976,1.655,7.408c0.604,2.124,1.618,4.047,2.332,6.122c0.284,0.827,0.361,1.644,0.251,2.511
			c-0.277,2.194-1.01,4.309-1.287,6.509c-0.606,4.819,0.216,9.721,1.245,14.425c1.143,5.224,2.672,10.352,4.184,15.478
			c1.629,5.523,3.353,11.018,5.046,16.521c1.271,4.131,2.861,8.386,3.121,12.731c0.269,4.496-0.922,9.352-2.612,13.494
			c-0.634,1.553-1.823,2.967-2.263,4.58c-0.204,0.748-0.055,1.497,0.15,2.229c0.66,2.362,1.542,4.628,2.068,7.032
			c0.561,2.564,0.966,5.171,1.173,7.788c0.193,2.441,0.047,4.831-0.163,7.264c-0.104,1.203-0.213,2.446,0.143,3.62
			c0.571,1.883,1.901,2.968,3.761,3.407c1.632,0.386,1.565,2.569,1.525,3.921c-0.093,3.129-1.796,6.154-1.261,9.307
			c0.304,1.792,1.489,3.554,3.142,4.367c1.484,0.729,2.727,0.188,3.68-1.071c1.171-1.545,1.867-3.467,2.546-5.261
			c0.895-2.364,1.708-4.762,2.506-7.16c1.66-4.985,3.541-10.005,4.696-15.137c1.002-4.45,0.423-8.861-0.513-13.269
			c-1.112-5.24-2.346-10.477-3.024-15.796c-0.634-4.976-0.549-9.963-0.183-14.957c0.199-2.717,0.457-5.429,0.524-8.154
			c0.066-2.659,0.053-5.32,0.15-7.979c0.195-5.372,0.797-10.73,1.296-16.08c0.478-5.125,0.986-10.249,1.151-15.396
			c0.151-4.714-0.042-9.539-1.447-14.074c-0.738-2.382-1.811-4.62-2.844-6.882c-0.393-0.861-0.856-1.753-0.774-2.723
			c0.193-2.306,0.538-4.541,0.564-6.871c0.022-2.051-0.047-4.098-0.105-6.148c-0.17-5.956-0.382-11.913-0.477-17.871
			c-0.08-5.01-0.079-10.029,0.272-15.03c0.38-5.409,1.007-10.824,0.909-16.255c-0.091-5.062-0.863-10.058-1.992-14.986
			c-1.119-4.882-2.536-9.702-4.193-14.428c-1.633-4.657-3.407-9.48-6.085-13.652c-1.402-2.184-3.173-4.051-5.747-4.73
			c-2.112-0.557-4.345-0.556-6.497-0.89c-2.334-0.362-4.626-0.985-6.878-1.691c-4.941-1.549-9.758-3.543-14.396-5.84
			c-4.32-2.14-8.506-4.66-12.183-7.795c-2.443-2.083-5.264-4.654-6.086-7.894c-0.51-2.012-0.577-4.209-0.715-6.272
			c-0.132-1.973-0.38-4.371,0.17-6.305c0.327-1.15,0.968-2.263,1.366-3.4c0.336-0.962,0.632-1.939,0.856-2.933
			c0.512-2.274,0.515-4.552,0.429-6.868c0.622,0.442,0.758,0.816,1.584,0.601c1.716-0.448,2.956-2.18,3.715-3.663
			c1.665-3.249,2.495-7.356,2.481-10.992c-0.005-1.361-0.188-3.413-1.755-3.895c-0.969-0.298-1.916,0.145-2.57,0.853
			c-0.175,0.189-0.332,0.396-0.489,0.6c0.325-4.19,0.828-8.429,0.67-12.638c-0.138-3.687-1.017-7.274-2.645-10.586
			c-3.079-6.264-8.406-10.751-15.086-12.753c-7.452-2.233-15.636-1.903-23.003,0.484c-5.958,1.931-13.101,5.266-15.702,11.39
			c-1.363,3.208-1.685,6.811-1.807,10.259c-0.141,4.009,0.142,7.973,0.868,11.919c0.187,1.019,0.402,2.032,0.62,3.045
			c-0.308-0.754-0.858-1.563-1.763-1.577c-1.034-0.016-1.592,1.109-1.892,1.938c-0.865,2.393-0.584,5.14,0.063,7.545
			c0.974,3.622,2.91,7.436,5.466,10.205c0.691,0.748,2.397,2.419,3.328,1.063c-0.022,3.755,1.035,7.917,3.065,11.099
			c0.302,0.473,0.636,0.924,1.001,1.35c0.377,0.44,0.619,0.681,0.74,1.257c0.099,0.471,0.171,0.948,0.219,1.427
			c0.187,1.845,0.041,3.758-0.528,5.529c-0.915,2.846-2.945,4.702-5.356,6.371c-4.39,3.039-8.929,5.875-13.425,8.753
			c-2.051,1.313-4.084,2.691-6.248,3.813c-1.82,0.943-3.768,1.618-5.71,2.262c-3.215,1.066-6.429,2.132-9.644,3.198
			c-1.89,0.627-3.786,1.257-5.58,2.13c-3.709,1.806-6.581,4.658-8.631,8.218c-2.475,4.297-3.953,9.119-5.263,13.875
			c-1.347,4.891-2.397,9.881-3.125,14.901c-0.696,4.801-0.915,9.615-0.365,14.443c0.592,5.191,1.548,10.326,2.086,15.527
			c0.527,5.095,0.854,10.226,0.984,15.346c0.06,2.377,0.071,4.767-0.159,7.135c-0.22,2.264-0.796,4.472-0.98,6.74
			c-0.389,4.795,0.021,9.669-1.378,14.33c-0.717,2.388-1.547,4.722-2.067,7.166c-0.487,2.29-0.782,4.616-0.955,6.951
			c-0.373,5.041-0.275,10.123-0.093,15.17c0.17,4.716,0.426,9.438,0.844,14.139c0.51,5.739,1.068,11.475,1.527,17.219
			c0.425,5.322,0.588,10.662,0.652,15.999c0.061,5.042,0.002,10.127-0.585,15.14c-0.278,2.367-0.735,4.704-1.379,6.999
			c-0.636,2.267-1.563,4.462-2.088,6.759c-0.595,2.602,0.16,4.483,1.263,6.795c0.645,1.353,1.078,2.805,1.544,4.227
			c1.038,3.161,2.075,6.322,3.113,9.483c1.077,3.281,2.154,6.561,3.231,9.842c0.43,1.311,0.785,2.735,1.424,3.963
			c0.52,1,1.113,1.038,2.186,0.766c1.7-0.431,3.373-1.463,4.18-3.064c1.42-2.818,0.599-6.288-0.111-9.168
			c-0.365-1.479-1.134-3.784,0.179-5.064c0.888-0.866,2.295-0.277,3.169-1.122c0.568-0.549,0.704-1.445,0.809-2.188
			c0.335-2.384,0.302-4.82,0.476-7.22c0.355-4.902,1.299-9.773,2.515-14.53c0.785-3.071,1.77-5.65,0.444-8.648
			c-1.01-2.285-2.164-4.47-2.904-6.866c-0.666-2.159-1.063-4.398-1.236-6.65c-0.372-4.816,0.304-9.617,1.573-14.261
			c1.44-5.268,3.419-10.388,5.255-15.525c1.622-4.538,3.063-9.155,4.03-13.88c1.001-4.888,1.381-9.834,1.247-14.819
			c-0.133-4.934-0.864-10.019-0.191-14.936c0.331-2.413,1.082-4.736,1.629-7.102c0.538-2.327,0.871-4.685,1.103-7.061
			c0.491-5.022,0.649-10.073,0.847-15.113c0.199-5.064,0.319-10.055,1.216-15.053c0.399,2.208,0.359,4.429,0.852,6.638
			c0.744,3.337,1.582,6.659,2.174,10.028c0.522,2.969,0.78,5.955,0.802,8.969c0.022,3.098-0.091,6.212,0.217,9.301
			c0.596,5.974,2.521,11.709,2.069,17.769c-0.473,6.343-1.842,12.653-2.991,18.899c-0.571,3.104-1.153,6.206-1.774,9.3
			c-0.291,1.449-0.604,2.894-0.905,4.341c-0.243,1.166-0.486,2.332-0.73,3.498c-0.147,0.705-0.18,1.636-0.479,2.294
			c-0.184,0.405-0.288,0.22-0.661,0.404c-0.119,0.059-0.207,0.122-0.296,0.22c-0.145,0.159-0.211,0.388-0.273,0.587
			c-0.313,1.007-0.356,2.136-0.47,3.177c-0.68,6.186-0.912,12.45-0.858,18.671c0.06,6.894,0.349,13.77,0.676,20.655
			c0.326,6.853,0.855,13.702,1.289,20.549c0.163,2.57,0.285,5.147,0.491,7.714c0.053,0.668,0.052,1.671,0.596,2.175
			C217.472,438.068,217.607,438.146,217.749,438.194z"/>
	</g>
	<g id="POLYLINE_23_">
		
			<path fill="none" stroke="#FF6B6B" stroke-width="3.5" stroke-linecap="round" stroke-linejoin="round" stroke-miterlimit="10" d="
			M443.562,373.379c-1.842,5.551-3.218,11.199-3.865,17.019c-0.659,5.933-0.608,11.917-0.122,17.861
			c0.513,6.27,1.436,12.494,2.483,18.695c1.053,6.241,2.337,12.44,3.631,18.635c0.983,4.709,2.047,9.401,3.076,14.1
			c1.925,8.785,3.851,17.57,5.776,26.355c0.981,4.478,2.266,9.027,2.853,13.585c0.247,1.917-0.253,3.668-0.661,5.538
			c-0.68,3.112-1.248,6.241-1.782,9.381c-1,5.881-1.842,11.828-2.243,17.782c-0.401,5.95-0.112,11.888,0.862,17.771
			c0.941,5.687,2.407,11.292,3.975,16.834c1.992,7.039,4.081,14.052,6.121,21.076c1.579,5.435,3.118,10.869,4.518,16.353
			c1.5,5.877,2.871,11.79,4.036,17.742c1.176,6.003,1.908,12.022,2.397,18.116c0.094,1.168,0.634,3.193,0.005,4.319
			c-0.306,0.548-0.98,0.754-1.279,1.316c-0.483,0.907-0.197,2.239,0.034,3.173c0.194,0.781,0.742,1.501,0.633,2.327
			c-0.238,1.812-1.66,3.692-2.615,5.18c-1.622,2.529-3.49,4.907-5.749,6.898c-1.908,1.682-4.229,2.98-5.967,4.84
			c-0.589,0.631-1.103,1.453-0.971,2.354c0.264,1.793,1.862,1.415,3.119,1.928c0.684,0.279,1.16,0.972,1.922,1.069
			c0.779,0.1,1.525-0.437,2.3-0.298c0.801,0.143,1.353,0.889,2.168,1.077c0.784,0.18,1.63,0.114,2.425,0.078
			c1.479-0.067,2.956-0.134,4.437-0.132c2.731,0.003,5.43,0.442,8.156,0.105c1.096-0.135,2.697-0.264,3.575-1.06
			c0.689-0.625,0.665-1.723,0.7-2.573c0.126-3.091,0.146-6.183,0.336-9.272c0.186-3.024,0.538-6.021,0.935-9.023
			c0.322-2.432,0.873-4.942,0.539-7.401c-0.835-6.137-1.364-12.286-1.769-18.466c-0.4-6.097-0.675-12.206-0.789-18.315
			c-0.115-6.163-0.067-12.329,0.101-18.491c0.191-7.006,0.484-14.011,0.726-21.016c0.189-5.469,0.329-10.949,0.144-16.42
			c-0.207-6.131-0.95-12.198-1.689-18.282c-0.651-5.364-1.898-11.127-0.95-16.522c0.481-2.738,1.183-5.41,1.562-8.171
			c0.408-2.974,0.659-5.971,0.865-8.966c0.351-5.115,0.574-10.242,0.709-15.367c0.19-7.229,0.381-14.458,0.571-21.687
			c0.206-7.826,0.412-15.652,0.618-23.478c0.133-5.057,0.338-10.113,0.519-15.168c0.12-3.356,0.02-6.804,0.362-10.145
			c0.031-0.3,0.152-0.795,0.49-0.347c0.091,0.121,0.041,0.502,0.051,0.641c0.081,1.091,0.162,2.183,0.243,3.274
			c0.112,1.508,0.196,3.018,0.286,4.527c0.127,2.112,0.199,4.226,0.283,6.34c0.318,8.008,0.637,16.015,0.955,24.023
			c0.238,5.995,0.616,11.987,0.931,17.979c0.299,5.692,0.636,11.377,0.523,17.08c-0.115,5.76-0.418,11.323,0.477,17.042
			c0.932,5.95,1.893,11.735,1.538,17.782c-0.366,6.233-1.394,12.415-1.896,18.639c-0.448,5.558-0.608,11.148-0.51,16.723
			c0.127,7.208,0.323,14.416,0.484,21.624c0.126,5.634,0.315,11.269,0.327,16.904c0.014,6.564-0.025,13.121-0.224,19.682
			c-0.174,5.755-0.561,11.495-1.012,17.233c-0.273,3.474-0.576,6.946-0.82,10.422c-0.136,1.942-0.118,3.632,0.316,5.509
			c0.518,2.243,0.385,4.676,0.438,6.965c0.07,3.074,0.122,6.14,0.372,9.206c0.175,2.142,0.057,4.649,0.856,6.696
			c0.416,1.065,1.17,1.766,2.271,2.081c1.847,0.529,3.79,0.157,5.672,0.193c0.554,0.011,1.108,0.144,1.66,0.107
			c0.887-0.059,1.743-0.437,2.612-0.604c1.025-0.197,1.466-0.034,2.37,0.387c0.913,0.426,1.822,0.133,2.766-0.098
			c0.999-0.244,1.986-0.479,3.017-0.526c1.031-0.048,2.075,0.068,3.101-0.07c1.426-0.193,2.986-1.101,4.072-1.995
			c1.242-1.022,0.457-3.247-0.45-4.24c-0.482-0.528-1.164-0.828-1.779-1.164c-1.091-0.597-2.126-1.272-3.115-2.028
			c-1.952-1.492-3.769-3.211-5.256-5.172c-1.442-1.902-2.623-4.101-3.275-6.404c-0.267-0.945-0.518-2.037-0.21-3.005
			c0.172-0.542,0.777-0.943,0.865-1.472c0.075-0.449-0.383-0.922-0.58-1.256c-0.853-1.445-0.926-3.041-1.101-4.68
			c-0.104-0.97-0.491-1.868-0.468-2.843c0.061-2.578,0.69-5.215,1.162-7.74c0.528-2.828,1.072-5.654,1.666-8.469
			c1.439-6.822,2.938-13.622,4.481-20.421c1.34-5.903,2.874-11.765,4.452-17.608c1.694-6.273,3.587-12.494,5.415-18.729
			c1.611-5.494,3.333-10.987,4.471-16.604c1.159-5.719,1.175-11.389,0.562-17.174c-0.639-6.025-1.563-12.034-2.553-18.009
			c-0.547-3.302-1.104-6.601-1.693-9.896c-0.353-1.973-1.023-4.128-0.616-6.144c0.579-2.866,1.603-5.666,2.333-8.5
			c0.624-2.421,1.208-4.851,1.774-7.286c1.331-5.722,2.707-11.436,3.976-17.172c1.763-7.969,3.526-15.938,5.289-23.906
			c1.149-5.191,2.348-10.376,3.328-15.603c1.113-5.94,1.732-11.95,1.872-17.992c0.139-5.997-0.233-12.011-1.168-17.936
			c-0.451-2.855-1.018-5.694-1.688-8.505c-0.364-1.526-0.738-3.048-1.145-4.563c-0.275-1.023-0.999-2.564-0.916-3.563
			c0.055-0.67,0.125-1.076-0.101-1.805c-0.35-1.132-0.802-2.218-1.095-3.369c-0.163-0.639-0.273-1.446-0.659-2.006
			c-0.215-0.313-0.503-0.432-0.686-0.715c-0.409-0.633-0.55-1.629-0.8-2.347c-0.281-0.807-0.567-1.613-0.858-2.418
			c-0.428-1.185-0.866-2.368-1.313-3.546c-2.237-5.898-4.852-11.785-6.272-17.953c-1.304-5.661-1.015-11.394-0.242-17.108
			c0.842-6.225,2.003-12.418,3.165-18.59c0.56-2.975,1.153-5.945,1.73-8.917c0.329-1.697,0.659-3.395,0.988-5.092
			c0.193-0.997,0.682-1.678,1.12-2.6c0.161,5.073,0.322,10.146,0.483,15.219c0.149,4.711,0.272,9.423,0.449,14.133
			c0.209,5.542,0.43,11.085,0.691,16.625c0.2,4.247,0.646,8.38,1.632,12.521c1.02,4.281,2.068,8.556,3.102,12.834
			c1.685,6.97,3.37,13.941,5.054,20.911c0.81,3.35,1.642,6.695,2.404,10.056c1.15,5.074,2.436,10.15,3.281,15.287
			c0.225,1.365,0.5,2.839,0.211,4.217c-0.406,1.939-1.035,3.833-1.426,5.786c-0.962,4.812-1.858,9.673-2.497,14.539
			c-0.258,1.968-0.483,3.978-0.155,5.951c0.362,2.181,1.058,4.362,1.717,6.469c0.206,0.658,0.785,3.505,1.956,3.54
			c0.651,0.02,0.896-0.905,0.969-1.389c0.124-0.831-0.08-1.673-0.298-2.47c-0.44-1.605-0.947-3.127-0.959-4.806
			c-0.012-1.651,0.301-3.313,0.798-4.883c0.277-0.876,0.626-2.07,1.364-2.688c0.311-0.26,0.608-0.349,0.957-0.113
			c0.399,0.27,0.586,0.887,0.724,1.315c0.569,1.755,0.7,3.689,0.838,5.518c0.271,3.619,0.515,7.68-1.313,10.96
			c-0.816,1.464-2.039,2.66-2.846,4.12c-0.204,0.369-0.411,0.801-0.354,1.237c0.053,0.398,0.263,0.665,0.647,0.771
			c0.527,0.145,1.169-0.114,1.646-0.308c1.572-0.638,3.021-1.669,4.322-2.745c3.093-2.559,5.073-5.831,6.46-9.568
			c1.335-3.595,2.242-6.894,1.743-10.725c-0.668-5.13-2.107-10.203-3.257-15.235c-0.993-4.345-1.934-8.722-2.443-13.155
			c-0.481-4.182-0.479-8.361-0.474-12.563c0.006-5.394,0.083-10.793-0.009-16.187c-0.085-4.95-0.206-9.9-0.458-14.844
			c-0.253-4.987-0.542-9.974-1.125-14.936c-0.572-4.861-1.833-9.437-3.194-14.123c-1.243-4.279-1.715-8.682-1.914-13.121
			c-0.22-4.901-0.229-9.804-0.195-14.709c0.029-4.236,0.079-8.469,0.144-12.705c0.105-6.911,0.211-13.822,0.316-20.733
			c0.064-4.174,0.078-8.348,0.056-12.523c-0.024-4.555-0.041-9.195-0.682-13.713c-0.471-3.32-1.476-6.193-4.045-8.428
			c-2.755-2.397-6.378-4.197-10.013-4.696c-2.2-0.302-4.361-0.416-6.512-1.021c-2.193-0.617-4.311-1.5-6.368-2.472
			c-4.14-1.956-8.17-4.31-11.704-7.236c-1.565-1.296-3.706-2.99-4.545-4.882c-0.833-1.879-1.109-4.17-1.381-6.186
			c-0.094-0.692-1.098-7.534-0.282-7.617c0.354-0.036,0.77,1.295,0.83,1.434c0.916,2.123,1.7,4.348,3.053,6.245
			c0.344,0.481,3.245,3.897,3.62,3.173c0.089-0.171-0.133-0.641-0.18-0.794c-0.319-1.04-0.728-2.053-1.085-3.081
			c-0.679-1.954-1.341-3.981-1.44-6.064c-0.018-0.385-0.174-1.778,0.49-1.773c0.549,0.004,1.301,1.243,1.568,1.528
			c0.709,0.757,1.479,1.411,2.389,1.913c1.348,0.744,2.874,1.234,4.393,1.477c0.367,0.059,1.275,0.295,1.626,0.005
			c0.683-0.565-1.113-1.853-1.365-2.158c-1.57-1.902-1.517-4.054-1.6-6.431c-0.031-0.884-0.135-1.746-0.288-2.617
			c-0.041-0.232-0.308-0.997-0.168-1.269c0.095-0.184,0.065-0.177,0.274-0.173c0.233,0.004,0.584,0.409,0.734,0.538
			c0.823,0.707,1.578,1.49,2.409,2.187c0.51,0.427,1.257,1.113,1.967,1.138c0.993,0.035-0.002-0.771-0.306-1.052
			c-2.161-1.993-3.239-4.892-3.989-7.666c-1.145-4.236-1.156-8.525-1.093-12.878c0.074-5.083,0.13-10.147-0.161-15.226
			c-0.268-4.679-0.684-9.384-1.612-13.983c-0.77-3.817-2.012-7.683-4.505-10.745c-1.009-1.24-2.24-2.483-3.635-3.29
			c-1.236-0.715-2.766-0.994-4.16-1.196c-1.222-0.177-2.169-0.024-3.348,0.248c-0.303,0.07-0.589,0.128-0.886,0.01
			c-0.587-0.231-0.994-0.886-1.499-1.258c-0.79-0.583-1.712-0.954-2.658-1.2c-3.831-0.996-8.18-0.589-11.981,0.327
			c-3.965,0.956-7.721,2.772-10.732,5.547c-3.041,2.801-5.112,6.402-6.531,10.256c-1.575,4.278-2.478,8.803-3.017,13.321
			c-0.567,4.76-0.633,9.543-0.34,14.325c0.278,4.529,1.153,9.323,0.32,13.838c-0.634,3.435-2.465,6.48-4.953,8.908
			c-0.622,0.607-1.294,1.16-2.002,1.664c-0.137,0.098-0.978,0.477-0.944,0.703c0.036,0.239,0.531,0.072,0.668,0.041
			c2.503-0.554,5.206-2.153,6.689-4.282c0.446-0.641,0.804-1.336,1.142-2.039c0.084-0.175,0.361-1.118,0.624-1.212
			c0.292-0.106,0.273,0.195,0.323,0.489c0.327,1.943,0.141,4.098,0.006,6.053c-0.097,1.404-0.226,2.866-0.751,4.186
			c-0.307,0.772-3.759,5.388-3.636,5.497c0.31,0.275,2.091-0.9,2.311-1.019c1.426-0.773,3.046-1.579,4.197-2.75
			c0.217-0.221,0.464-0.835,0.712-0.757c0.388,0.122,0.596,1.304,0.658,1.604c0.231,1.117,0.245,2.314,0.045,3.436
			c-0.183,1.029-0.689,1.874-1.054,2.842c-0.338,0.898,0.335,0.633,0.973,0.31c1.023-0.519,1.957-1.264,2.744-2.097
			c0.37-0.392,0.702-0.816,1.007-1.26c0.512-0.746,0.844-1.803,1.438-2.46c0.281-0.311,0.223-0.296,0.259,0.112
			c0.07,0.79-0.29,1.787-0.483,2.537c-0.164,0.64-0.341,1.292-0.62,1.893c-0.404,0.868-1.184,1.253-1.696,2.015
			c-0.131,0.195-0.483,0.731-0.372,1.014c0.284,0.72,1.664-0.496,1.919-0.684c1.577-1.17,3.091-2.572,4.259-4.155
			c1.021-1.384,1.593-2.933,2.089-4.565c-0.507,4.322-1.457,8.649-3.805,12.375c-2.233,3.544-5.526,6.193-9.031,8.408
			c-4.01,2.533-8.368,4.596-12.856,6.128c-4.466,1.525-9.174,2.071-13.65,3.515c-2.104,0.679-3.928,1.803-5.236,3.61
			c-2.064,2.852-2.747,6.534-3.219,9.945c-0.669,4.837-0.831,9.745-0.934,14.621c-0.075,3.521-0.081,7.042-0.043,10.563
			c0.065,6.037,0.13,12.073,0.195,18.11c0.074,6.875,0.148,13.75,0.222,20.625c0.036,3.39,0.089,6.778,0.034,10.169
			c-0.039,2.406-0.097,4.823-0.362,7.216c-0.241,2.174-0.81,4.213-1.45,6.296c-1.386,4.508-2.619,9.07-3.503,13.705
			c-0.908,4.761-1.281,9.583-1.388,14.424c-0.098,4.426-0.037,8.851,0.008,13.277c0.055,5.37,0.151,10.742,0.161,16.112
			c0.01,4.914,0.006,9.852-0.402,14.752c-0.402,4.828-1.575,9.298-3.032,13.9c-1.37,4.327-2.427,8.834-2.883,13.354
			c-0.346,3.434-0.171,6.898,1.17,10.115c1.485,3.563,3.967,6.782,6.709,9.466c1.236,1.209,2.588,2.463,4.143,3.254
			c0.39,0.198,0.884,0.445,1.339,0.384c0.512-0.07,0.755-0.453,0.835-0.941c0.131-0.799-0.211-1.616-0.601-2.291
			c-0.939-1.624-2.1-3.046-2.801-4.807c-1.219-3.061-1.097-6.379-0.6-9.583c0.267-1.72,0.561-3.582,1.336-5.16
			c0.16-0.326,0.644-1.248,1.127-1.252c0.199-0.002,0.189,0.056,0.328,0.198c0.386,0.394,0.536,1.284,0.707,1.781
			c0.341,0.991,0.639,1.999,0.863,3.022c0.288,1.318,0.432,2.641,0.293,3.985c-0.16,1.547-0.697,3.046-0.738,4.604
			c-0.011,0.411-0.089,1.872,0.627,1.875c0.273,0.001,0.528-0.378,0.66-0.555c1.023-1.369,1.613-3.156,2.208-4.74
			c0.486-1.294,1.073-2.674,1.171-4.072c0.072-1.029-0.175-2.061-0.353-3.067c-0.965-5.457-1.944-10.907-2.985-16.35
			c-0.831-4.344-0.852-8.563-0.285-12.944c0.606-4.675,1.55-9.314,2.553-13.918c1.047-4.805,2.107-9.607,3.254-14.39
			c1.278-5.331,2.566-10.661,3.892-15.98c1.154-4.631,2.349-9.259,3.701-13.837c0.641-2.17,1.403-4.32,1.798-6.554
			c0.412-2.328,0.515-4.708,0.633-7.065c0.251-5.013,0.292-10.038,0.41-15.055c0.099-4.23,0.2-8.459,0.286-12.689
			c0.111-5.444,0.221-10.888,0.331-16.332c0.346,0.758,0.896,1.447,1.06,2.258c0.39,1.931,0.706,3.882,1.045,5.823
			c0.531,3.042,1.048,6.086,1.536,9.135c1.153,7.208,2.417,14.416,3.082,21.691c0.299,3.269,0.426,6.557,0.037,9.825
			c-0.382,3.208-1.237,6.323-2.239,9.386c-0.927,2.835-1.981,5.63-3.077,8.403c-0.856,2.166-1.712,4.331-2.568,6.497
			c-0.439,1.11-0.877,2.219-1.316,3.329c-0.236,0.596-0.408,1.424-0.773,1.955c-0.383,0.558-0.881,1.014-1.242,1.713
			c-0.724,1.403-2.002,3.566-1.699,5.262C443.433,373.04,443.562,373.243,443.562,373.379z"/>
	</g>
</g>
</svg>
